<svg width="67" height="66" viewBox="0 0 67 66" xmlns="http://www.w3.org/2000/svg" xmlns:xlink="http://www.w3.org/1999/xlink">
    <defs>
        <path id="a" d="M0 0h22v24H0z"/>
        <path id="c" d="M0 0h15v13H0z"/>
    </defs>
    <g fill="none" fill-rule="evenodd" opacity=".847">
        <g transform="matrix(0 -1 -1 0 66.25 22.75)">
            <mask id="b" fill="#fff">
                <use xlink:href="#a"/>
            </mask>
            <path d="M21.255 10.934c.866.772.868.777.553 1.977-.708.255-1.494.058-2.255.115-.845.067-1.718-.135-2.53.21-.75.318-1.554.12-2.29.332-.226.122-.292.316-.296.548.034.06.068.124.106.188.376.628 1.172.465 1.641.942.455.46.915.944 1.45 1.285.645.407 1.296.88 2.155.75.224-.036.496.238.685.338.346.555.227 1.046.128 1.429-.34.521-.727.632-1.286.539-2.086-1.716-4.414-3.224-6.752-4.608-.591.137-.734.548-.732 1.006.004.358.121.714.166 1.074.054.431.228.922.096 1.292-.43 1.22-.262 2.47-.317 3.708-.02.438-.003.878-.003 1.232-.774.897-.774.897-1.527.256-.043-.14-.128-.278-.122-.416.054-1.31-.091-2.622.301-3.929.198-.668.034-1.457.006-2.189-.004-.102-.172-.2-.307-.345-1.184.274-1.29 1.645-2.097 2.302-.868.707-1.195 1.8-1.681 2.642-.702.357-1.045.095-1.28-.555a6.875 6.875 0 0 1 1.83-3.084c.768-.754 1.58-1.49 2.061-2.508.126-.263.307-.502.088-.873-.531-.339-1.171-.268-1.771-.053-.627.225-1.257.214-1.892.234-.988.031-1.96.011-2.932.374-.56.21-1.254.04-1.864.04-.355-.272-.83-.45-.442-1.115 2.569-.497 5.227-.776 8.017-1.084l.169-.546c-.126-.15-.232-.367-.401-.47-1.707-1.029-3.232-2.389-5.174-2.99-.477-.148-.832-.548-1.075-1.004-.139-.575.194-.807.702-1.035 2.78 1.187 5.056 3.397 7.849 4.64.68-.62.834-1.431.674-2.214-.211-1.033.036-2.019.045-3.027.013-1.325.025-2.65.036-3.976.004-.586 0-1.172 0-1.807.316-.21.606-.402.839-.559.505.062.77.365.755.73-.068 1.824.168 3.65-.24 5.48-.328 1.483-.253 3.026.059 4.676 1.233-.493 1.81-1.566 2.656-2.296.866-.752 1.758-1.472 2.591-2.257.84-.79 1.62-1.64 2.358-2.395.631-.104.9.175 1.056.752-.787.747-1.547 1.619-2.447 2.282-.934.69-1.739 1.504-2.547 2.326-1.856 1.889-1.854 1.89-1.989 2.718 1.295.528 2.481-.285 3.719-.385 1.167-.095 2.274-.739 3.458-.697" fill="#231F20" mask="url(#b)"/>
        </g>
        <g transform="matrix(0 -1 -1 0 13.25 37.75)">
            <mask id="d" fill="#fff">
                <use xlink:href="#c"/>
            </mask>
            <path d="M14.459 3.786c.462.19.582.51.53.933-.192.419-.515.71-1.028 1.014-1.022.044-2.178.097-3.238.144-.369.16-.589.341-.685.649.28.89 1.326.511 1.802 1.21.329.632.298 1.22-.546 1.666-1.177-.43-1.923-1.707-3.168-2.067-.262.063-.378.226-.404.47-.09.835-.052 1.638.29 2.426.236.543.362 1.135.524 1.66 0 .552-.225.905-.661 1.108-.312.014-.57-.095-.866-.502-.35-.834.107-2.15-.933-2.921-1.032.518-1.032.518-1.826 2.26-.41.435-.9.406-1.408.252-.332-.285-.332-.638-.138-1.18 1.032-.912 1.714-2.302 2.938-3.652-2.063.045-3.66.925-5.302.848-.288-.154-.412-.308-.298-.621.752-.279 1.511-.679 2.405-.722.966-.047 1.747-.651 2.671-1.108-.634-1.616-2.237-1.569-3.308-2.337-.244-.373-.148-.688.18-.962.5-.137 1-.15 1.497.025.615.238.881 1.01 1.535 1.113.448-.034.515-.357.476-.642-.048-.367-.242-.708-.303-1.072-.085-.509-.225-1.031.03-1.51.24-.317.526-.236.918-.152.264.699.635 1.413.642 2.266.008.811-.066 1.639.196 2.448.99.064 1.293-.753 1.773-1.243.456-.464.72-1.137 1.188-1.583.56-.534.73-1.266 1.06-1.836.412-.203.766-.217 1.19-.07.064.14.184.326.232.527.03.13-.04.29-.079.527-.392.436-.84.922-1.277 1.42-.386.438-.76.89-1.078 1.263-.024.496.201.681.513.679.575-.003 1.162 0 1.723-.113.772-.156 1.524-.416 2.233-.615" fill="#231F20" mask="url(#d)"/>
        </g>
        <path d="M43.912 50.754c-1.06-.727-1.219-.703-2.038.303.191.9.558 1.857.378 2.874-.068.38-.226.673-.65.848-1.111-.63-1.378-1.976-2.3-2.776-.361-.093-.719-.14-1.12.065-.21.164-.229.441-.185.85.734.937 1.528 1.952 2.325 2.973-.002.56-.417.704-.858.736-.582.044-1.168.005-1.753.026-.575.022-1.167-.11-1.71.143-.329.3-.287.638-.142.989.092.112.16.262.276.327.378.214.77.398 1.1.562.817.015 1.574-.696 2.343.078-.52 1.36-1.592 2.342-2.466 3.263-.072.464-.127.75.147.976.64.158.953-.333 1.193-.725.61-1.01 1.48-1.774 2.311-2.577.15-.145.354-.238.7-.465.583 1.46.537 2.14-.273 5.13.445.55.88 1.139 1.69.793.336-.373.292-.745.294-1.095.009-.937.009-1.872-.009-2.81-.013-.674.167-1.274.672-1.83 1.146.548 1.643 1.98 2.931 2.313.375-.365.35-.716.246-1.248-.65-.546-1.477-1.132-1.996-1.887 0-.474.25-.617.554-.636.509-.035 1.02-.024 1.532-.024.806-.002 1.612.009 2.264-.442.516.13.933.238 1.313.336.74-.169.795-.816 1.069-1.23-.081-.551-.433-.802-.832-1.075-.172-.03-.384-.084-.6-.101-.891-.076-1.648.534-2.566.443-.863-.086-1.741-.037-2.53.338a58.08 58.08 0 0 1-.55-.507c.23-1.482 1.624-2.146 2.37-3.183-.168-.783-.555-1.09-1.242-.976-.5.29-.595.82-.85 1.244-.224.373-.417.767-.981.78-.371-.455.101-.913.024-1.377-.081-.487-.06-.99-.081-1.426" fill="#231F20"/>
    </g>
</svg>
