<svg width="200" height="66" viewbox="0 0 200 66" xmlns="http://www.w3.org/2000/svg">
    <g fill="#f7a87c" fill-rule="nonzero">
        <path d="m50.942 65.797-.507-1.377H47.97l-.507 1.377h-1.667l3.333-7.536h.145l3.334 7.536h-1.667zm-1.812-4.493-.724 1.812h1.377l-.653-1.812zM67.464 65.942l-4.276-4.058v3.913h-1.666v-7.609l.217-.072 4.203 4.058V58.26h1.667v7.681zM77.319 65.797l-.507-1.377h-2.464l-.507 1.377h-1.667l3.333-7.536h.218l3.333 7.536h-1.74zm-1.74-4.493-.724 1.812h1.377l-.652-1.812zM83.55 65.797v-7.464h1.667v7.464zM90.652 65.797v-7.464h1.667v5.942h2.826v1.595h-4.493zM106.16 65.942c-.798 0-1.74-.362-2.392-.797l.435-1.594c.58.435 1.304.724 1.956.724.58 0 .798-.29.798-.652 0-.362-.218-.652-1.232-1.087-1.232-.507-1.667-1.304-1.667-2.174 0-1.087.87-2.174 2.464-2.174.797 0 1.594.29 1.956.58l-.435 1.522c-.434-.29-1.086-.58-1.594-.58-.58 0-.87.29-.87.58 0 .507.363.652 1.233 1.087 1.304.58 1.739 1.232 1.739 2.246.145 1.16-.652 2.319-2.392 2.319zM118.043 65.797v-2.97h-2.753v2.97h-1.667v-7.464h1.667v2.899h2.753v-2.899h1.667v7.464zM128.406 65.942c-2.174 0-3.55-1.667-3.55-3.84 0-2.174 1.448-3.841 3.622-3.841s3.551 1.667 3.551 3.84c.072 2.174-1.45 3.841-3.623 3.841zm.072-6.232c-1.087 0-1.884.942-1.884 2.319 0 1.304.725 2.319 1.884 2.319 1.087 0 1.884-1.015 1.884-2.319s-.797-2.319-1.884-2.319zM139.493 63.55h-.58v2.247h-1.667v-7.391c.725-.073 1.377-.145 1.957-.145 2.029 0 3.116 1.16 3.116 2.681.072 1.522-.942 2.609-2.826 2.609zm0-3.695c-.218 0-.363 0-.58.073v2.101h.507c.87 0 1.305-.435 1.305-1.16-.073-.507-.435-1.014-1.232-1.014z"/>
        <g>
            <path d="M171.087 27.174c-.362.362-.652.797-.942 1.232-1.74 2.753-4.13 4.782-7.102 6.304-1.086.218-2.246-.145-3.333-.87a5.572 5.572 0 0 1-1.304-1.304l2.029-.217c.072.072.072.145.145.145.724.29 1.377.217 1.884-.145.652-.435 1.304-.87 1.811-1.377 3.334-3.478 6.522-7.029 8.551-11.522.507-1.014.797-2.101 1.015-3.26.072-.363 0-.725-.29-1.015-.363-.362-.725-.217-1.087-.217-2.971.29-6.015.434-9.058-.218-.87-.145-1.667-.362-2.392-.797-.217-.145-.29-.362-.507-.725.507-.434 5.073-.652 7.681-.652 2.247-.072 4.566-.217 6.884-.29 1.667-3.55 1.812-7.536 2.971-10.942.58-.652 1.16-.724 1.74-.942.652-.072 1.304.218 1.811.652.073.145.218.363.145.508-.362 1.377-.652 2.753-1.16 4.058-.651 1.811-1.086 3.695-1.521 5.58-.072.217 0 .507 0 .869 1.74.652 3.478.435 5.217.652 1.74.218 3.479.145 5.29.218 1.667.072 3.334.072 5 .217 1.74.072 3.406-.217 5.073.145.362.652 0 .87-.218 1.232-1.232.145-2.391.507-3.695.362-1.232-.145-2.464.145-3.84 0-1.45-.217-2.972-.145-4.421-.072-2.174.217-4.42.072-6.594.072-.942 0-1.884-.145-2.754.435-.942 3.478-1.74 7.029-2.102 10.797-.217 2.391-.652 4.71-1.014 7.101-.145 1.305-.362 2.61-.435 3.986a95.692 95.692 0 0 0 0 6.45c.073 1.666-.145 3.188-.507 4.637-.725.362-1.304.362-2.029.072-1.087-.724-1.45-1.884-1.232-2.898.217-1.16.145-2.32.217-3.696.145-2.246.073-2.536.29-4.275.145-1.377.363-2.102.508-3.696.145-1.739.29-3.768.507-5.507.072-.435 0-.87-.507-1.304-.218 0-.58 0-.725.217z"/>
            <path d="M160.87 25.507c.87-1.014 2.029-1.811 2.39-3.043-.144-.435-.361-.58-.724-.652-.145.072-.507.072-.652.29-.58.797-1.087 1.666-1.667 2.536-.145.29-.362.58-.072.942.29.217.58.072.725-.073zm-12.102-4.275c.652-.652 1.087-1.45 1.015-2.754-2.537.145-3.551.797-5.58 3.479.29.434.725.507 1.232.507 1.377.145 2.464-.363 3.333-1.232zm.435-3.84c.942-.218 1.956-.363 2.898.362.363.507.363.942.218 1.304-.362.87-.87 1.667-1.594 2.319-1.45 1.304-2.537 3.043-4.783 3.043-.072.435-.145.652-.072.725.217.435.362.942.652 1.232.797.724 1.666 1.666 2.464 2.319 1.086.434 5.434.434 7.898-.797.87-2.464 1.377-5.145 2.971-7.464 1.304-.435 2.754.145 4.203.145.435 0 .942.145 1.232.652-.58 3.55-2.826 5.942-5.435 8.043-.072 1.087-.217 2.102.507 2.971l-2.029.218c-.362-.507-.724-1.015-1.232-1.45-.797.218-1.521.29-2.173.508-1.015.362-2.174.072-3.261.072-1.957.073-3.696-.942-5.145-2.391-1.16-1.16-2.174-2.391-3.116-3.623-.652-.145-.797.145-.87.507-.362 1.16-.87 2.319-.942 3.623-.145 2.102-.724 4.13-1.087 6.16-.29 2.029-.58 4.058-1.014 6.014 0 .073-.073.145-.145.217-.652.508-1.305.363-1.957-.144-.145-.218-.29-.363-.29-.508a27.977 27.977 0 0 1 .653-6.956c.507-2.32.434-4.058 1.087-6.015.217-.58.434-1.16.362-1.739 0-.217-.362-1.811-.507-1.811-.435 0-.653.29-.87.507-1.014 1.377-2.029 2.753-2.97 4.13a9.774 9.774 0 0 1-3.407 3.261c-.797.217-1.594.29-2.319.217l-.29-1.811c.943-.073 1.522-.362 1.957-.725.58-.507 1.16-1.014 1.667-1.594 2.608-3.26 5.072-6.594 7.101-10.217 2.03-3.624 3.189-7.609 4.13-11.667.29-1.232.508-2.609 1.377-3.55 1.232-.363 2.174.144 3.116.796 0 .29.145.508.073.653-.87 2.101-1.232 4.347-1.74 6.521-.362 1.74-.796 3.406-1.376 5-.362.87-.652 1.74-.435 2.754.725.362 1.087-.145 1.522-.362.797-.725 1.884-1.16 2.97-1.45z"/>
            <path d="M120.507 31.667c-1.666.87-2.029.87-4.42.29-.725-.363-1.232-.943-1.884-1.812-.435-.507-.073-1.594-.87-2.609-.217.145-.362.29-.507.435l-1.16-.725c.363-.507.798-1.014 1.16-1.521.507-.653 1.16-1.232 1.594-1.957.435-.725.58-1.594.942-2.391.797-.29 1.667-.435 2.681.072-.362 1.884-.724 3.768-1.159 5.58-.29 1.087-.29 2.174.145 3.188.58.363.87.218 1.232.145.942-.29 1.739-.797 2.319-1.594 1.377-2.029 3.26-3.623 4.782-5.58.363-.434.725-.942 1.087-1.449.435-.725 1.087-1.304 1.667-1.811 1.16-.508 2.391-.435 3.623-.218 1.232.218 2.03.942 2.319 2.102-.217.434-.58.507-1.015.362-.797-.217-1.594-.507-2.39-.725-.87.29-1.378.87-1.74 1.594-.58 1.45-1.16 2.827-1.594 4.348-.435 1.45.362 2.681 1.304 3.768h.218l.29 1.812a8.592 8.592 0 0 1-2.03-.725c-1.304-.87-1.739-2.246-2.536-3.188-.652-.217-.87.072-1.014.362-.725 1.015-1.884 1.667-3.044 2.247z"/>
            <path d="M97.609 34.058c-.87 1.884-2.754 2.609-4.638 3.333-.217.073-.58.073-.797.073-.652-.145-1.304-.29-1.884-.507-.652-.218-1.304-.435-1.667-1.015.507-1.956 1.015-2.899 2.247-4.058 1.449-1.304 2.898-2.609 4.71-3.406.724-.29 1.304-.797 1.956-1.232.145-1.666.507-3.26.145-4.927-.072-.435-.29-.87-.87-1.305-.362-.144-.724-.29-1.159-.29l-.145-1.014c.507 0 .942.073 1.45.145 1.594.29 2.536 1.16 2.97 2.681.218.87.29 1.74.435 2.536.435.435.797.29 1.087.145.797-.362 1.522-.797 2.32-1.159.506-1.087 1.014-2.101 1.52-3.188 1.305-.58 3.769-.435 4.059-.145.217.362 0 1.956-.942 3.768-1.087 1.956-1.232 4.203-1.377 6.449 0 .145.217.29.362.507.218-.072.508-.145.652-.29a34.999 34.999 0 0 0 2.32-2.318c.434-.508.796-.942 1.159-1.45l1.16.725c-.436.507-.58 1.087-.943 1.594-.507.652-1.014 1.377-1.522 2.03-.507.651-1.087 1.303-1.521 1.81-.942.363-1.812.29-2.754.073-2.609-1.45-2.681-3.985-3.26-6.232-.29-.072-.508-.145-.653-.072-.87.652-1.957 1.087-2.754 2.101 0 1.522-.87 3.044-1.666 4.638zm-4.276-2.391c-1.884.724-2.826 2.029-3.188 4.13 1.522 1.16 2.609.435 3.623.217 2.03-1.884 2.464-2.608 3.044-5.434-.29-.363-.653-.363-1.015-.218-.797.435-1.594.942-2.464 1.305z"/>
            <path d="M83.768 21.232c.145-.435.435-.942.073-1.522-1.377-.217-2.754-.072-4.13.073l-.436-1.74c1.957-.217 3.768-.797 5.435-1.811 1.015-.58 1.667-1.377 2.03-2.464.796-2.391 1.666-4.782 2.463-7.174.362-.942.652-1.956.942-2.97.29-.218.507-.363.797-.58.29-.218.58-.363.797-.435.797-.073 1.377.145 2.102.58-.798 2.39-.942 4.854-1.74 7.246-1.231 3.695-2.318 7.464-3.478 11.16-.072.217-.072.506-.145.724.363.507.725.29.942.072.87-.797 1.812-1.521 2.899-2.029a7.174 7.174 0 0 1 3.043-.652l.145 1.015c-.797 0-1.594.362-2.246.87-3.116 2.39-5.942 5-6.957 9.057-.362 1.594-.797 3.116-1.014 4.71-.145.87-.29 1.667-.507 2.537-1.305.29-2.392.144-3.334-.87-.652-.942-.652-1.957-.652-2.899 0-1.521.073-3.116.507-4.565 1.015-2.753 1.74-5.58 2.464-8.333z"/>
            <path d="M73.478 17.609c.145.145.218.217.29.217 1.884.362 3.768.435 5.507.29l.435 1.74c-.435.072-.87.072-1.304.144-1.812.072-3.623.072-5.435.145-.652.362-.58 1.014-.797 1.522-.145.58-.362 1.087-.435 1.666-.29 1.667.145 2.174-.217 3.84-.652 3.334-.797 6.74-1.015 10.146-.072.87.145 1.739.073 2.609-.218 2.101-.58 4.202-.797 6.086-.725.58-1.305.145-1.812 0-.87-.724-1.232-1.521-1.522-2.318.145-1.522.29-2.899.363-4.348.072-1.305.217-2.536.507-3.768.29-1.305.507-2.102.58-4.203 0-2.536.217-2.102.072-4.638-1.45 1.232-2.174 2.899-3.696 3.913-1.376.942-2.174 2.536-3.84 3.044-1.087.072-1.957-.29-2.971-.725a8.137 8.137 0 0 1-1.522-2.101l1.74-.508c.144.29.434.508.869.725C61.014 30 63.26 28.551 65 26.449c1.812-2.174 2.971-3.116 3.623-5.942-.435-.507-.87-.58-1.377-.58-2.101-.217-4.275-.652-6.304-1.376-.435-.145-.87-.363-1.014-.942 1.521-.508 3.043.072 4.637.217 1.594.145 3.116.217 4.71.29.942-1.015 1.232-2.246 1.595-3.406 1.014-3.406 2.029-6.811 3.043-10.145.073-.29.29-.58.362-.87.942-.29 1.667-.144 2.32.435.362.435.29.942.144 1.305-.942 3.116-1.956 6.304-2.898 9.42-.145.797-.653 1.667-.363 2.754zM38.913 16.74c-1.16.217-2.319.217-3.406-.508-.217-.507.073-.725.435-.797.87-.145 1.812-.218 2.681.072.363.218.652.507.58.87-.073.145-.145.362-.29.362z"/>
            <path d="M57.971 23.55c.072-.651-.072-1.376-.652-2.173-1.16-.942-2.464-.942-3.623-.145-.653.435-1.16 1.014-1.74 1.45-1.014.724-1.811 1.666-2.826 2.318-.507-.435-.434-.725-.29-1.087.29-.87.218-1.812 0-2.754-.072-.145-.217-.29-.29-.434-.434-.29-.941-.29-1.81 0 0 0-.218.362-.436.652-.724 1.014-1.449 2.029-2.101 3.043-1.16 1.957-2.754 3.479-4.71 4.783-1.087.725-2.174 1.594-3.623 1.884-.29-.29-.508-.435-.58-.652-.29-.942-.362-1.884-.145-2.754.362-1.594.725-3.26 1.087-4.855.145-.797.435-1.594.145-2.464-1.015-.434-1.015-.434-2.174-.145-.725 2.32-2.102 4.348-2.609 6.74-.942.87-1.884 2.318-2.826 3.043-.58.507-1.087 1.232-2.174 1.304-.072.797-.072.653-.217 1.45 1.014.072 1.884-.218 3.188-1.305.507-.435.942-.87 1.45-1.377.217-.217.434-.507 1.014-.362.58.87 1.232 1.884 1.884 2.754.29.217.58.362.797.507 1.522.87 2.899.725 4.13 0 .435-.29.798-.58 1.16-.942 1.45-1.522 3.116-2.971 4.348-4.783.145-.217.435-.29.652-.434.362.434.29.87.145 1.231-.652 1.885-.942 3.914-1.232 5.87-.145.652-.072 1.304.29 2.174.507.435.87 1.304 1.884 1.232.145-.145.29-.218.362-.362.29-.87.508-1.74.725-2.61 1.16-4.927 3.768-8.985 8.043-11.883.073-.073.363 0 .508.072.434.29.217.652.217.942-.145.942-.29 1.812-.507 2.754-.363 1.594-.073 3.043.58 4.348l1.739-.508c-.073-.072-.073-.217-.145-.29-.218-.796-.145-1.521 0-2.318.217-1.16.29-2.536.362-3.913z"/>
            <path d="M26.667 31.45h-.435c-.942-.363-1.16-1.015-1.16-1.74.073-1.522.145-3.043.218-4.493 0-.507.072-1.014-.58-1.594-.942-.145-2.029-.362-3.043-.507-.363.072-.58.145-.87.145-2.029.362-3.696 1.014-4.638 2.826-.217.362-.58.58-.87.87-.651.652-1.014 1.449-1.303 2.318-.145.725-.218 1.45-.29 2.247.507 1.087 1.232 2.029 2.391 2.68.942.508 1.884.87 2.971.58 1.812-.724 2.391-2.68 3.913-3.768 1.087.435 1.594 1.45 2.754 1.812.217.073.434.073.652.073.217-.508.217-.942.29-1.45zm-4.276-4.276c-1.087 1.812-2.174 3.623-3.768 5.072-.435.363-.87.725-1.884.58-.145-2.391.942-4.13 2.319-5.652.797-.942 1.74-1.884 3.333-2.174.145.29.363.58.363.797-.073.435-.073.942-.363 1.377zM.217 6.884C1.377 6.45 2.32 6.16 3.188 5.58c3.261-2.03 7.03-1.957 11.015-.725 1.304.362 2.391 1.015 3.188 2.102.29.434.652.797 1.015 1.231 1.594 1.884 2.029 3.841 1.522 6.087-.653 3.044-2.174 5.58-4.203 7.971-.87 1.015-2.102 1.595-3.406 2.03-1.74.58-3.478 1.086-5.073 1.594-.434.507-.942 1.014-1.014 1.449-.073.797-.145 1.594-.29 2.391-.435 1.74-.507 3.623-.652 5.435-.145 1.884-.073 3.84-.58 5.652-.072.145-.145 1.304-.072 1.45-.073 1.956-.145 2.318-.435 3.912 0 .725-.073.725-1.015 1.45-.652-.145-.942-.58-1.231-1.087-.58-1.087-.653-2.32-.798-3.406-.434-3.696-.072-7.246.145-10.942.073-1.594.435-3.116.653-4.71v-.218c-.145-.507-.725-.507-1.087-.724-.435-.218-.725-.508-.87-1.087.507-.725 1.594-1.015 2.464-1.74.507-1.159.652-2.608.87-3.985.217-1.377.434-2.826.579-4.275.145-1.305.29-2.681.507-4.058.145-1.377.652-2.754.652-4.13-1.594-.218-2.246.796-3.333 1.086C.725 8.261.435 7.681.217 6.884zm10.653-1.16H9.203c-.435 0-.87.073-1.16.508-.362.58-.507 1.377-.507 2.029 0 .87.073 1.667-.145 2.464-.29 1.739-.362 3.405-.507 5.362-.072 1.304.145 2.609-.072 3.84-.073.508-.218.87 0 1.812 3.26-.87 5.434-2.029 7.39-4.638 1.74-2.318 3.19-4.782 2.755-7.826-1.74-2.68-2.899-3.405-6.087-3.55z"/>
        </g>
    </g>
</svg>
