<svg width="20" height="20" viewBox="0 0 20 20" fill="none" xmlns="http://www.w3.org/2000/svg">
<path fill-rule="evenodd" clip-rule="evenodd" d="M15.625 1.25H16.875C17.9089 1.25 18.75 2.09109 18.75 3.125V10.9522C17.8554 10.352 16.7809 10 15.625 10C12.5232 10 10 12.5232 10 15.625C10 16.7809 10.352 17.8554 10.9522 18.75H0.625C0.279531 18.75 0 18.4705 0 18.125V3.125C0 2.09109 0.841094 1.25 1.875 1.25H3.125V0.625C3.125 0.279531 3.40453 0 3.75 0C4.09547 0 4.375 0.279531 4.375 0.625V1.25H6.875V0.625C6.875 0.279531 7.15453 0 7.5 0C7.84547 0 8.125 0.279531 8.125 0.625V1.25H10.625V0.625C10.625 0.279531 10.9045 0 11.25 0C11.5955 0 11.875 0.279531 11.875 0.625V1.25H14.375V0.625C14.375 0.279531 14.6545 0 15 0C15.3455 0 15.625 0.279531 15.625 0.625V1.25ZM2.5 15.625C2.5 15.9705 2.77953 16.25 3.125 16.25H4.375C4.72047 16.25 5 15.9705 5 15.625C5 15.2795 4.72047 15 4.375 15H3.125C2.77953 15 2.5 15.2795 2.5 15.625ZM2.5 13.125C2.5 13.4705 2.77953 13.75 3.125 13.75H4.375C4.72047 13.75 5 13.4705 5 13.125C5 12.7795 4.72047 12.5 4.375 12.5H3.125C2.77953 12.5 2.5 12.7795 2.5 13.125ZM2.5 10.625C2.5 10.9705 2.77953 11.25 3.125 11.25H4.375C4.72047 11.25 5 10.9705 5 10.625C5 10.2795 4.72047 10 4.375 10H3.125C2.77953 10 2.5 10.2795 2.5 10.625ZM2.5 8.125C2.5 8.47047 2.77953 8.75 3.125 8.75H4.375C4.72047 8.75 5 8.47047 5 8.125C5 7.77953 4.72047 7.5 4.375 7.5H3.125C2.77953 7.5 2.5 7.77953 2.5 8.125ZM6.25 15.625C6.25 15.9705 6.52953 16.25 6.875 16.25H8.125C8.47047 16.25 8.75 15.9705 8.75 15.625C8.75 15.2795 8.47047 15 8.125 15H6.875C6.52953 15 6.25 15.2795 6.25 15.625ZM6.875 13.75H8.125C8.47047 13.75 8.75 13.4705 8.75 13.125C8.75 12.7795 8.47047 12.5 8.125 12.5H6.875C6.52953 12.5 6.25 12.7795 6.25 13.125C6.25 13.4705 6.52953 13.75 6.875 13.75ZM6.875 11.25H8.125C8.47047 11.25 8.75 10.9705 8.75 10.625C8.75 10.2795 8.47047 10 8.125 10H6.875C6.52953 10 6.25 10.2795 6.25 10.625C6.25 10.9705 6.52953 11.25 6.875 11.25ZM6.875 8.75H8.125C8.47047 8.75 8.75 8.47047 8.75 8.125C8.75 7.77953 8.47047 7.5 8.125 7.5H6.875C6.52953 7.5 6.25 7.77953 6.25 8.125C6.25 8.47047 6.52953 8.75 6.875 8.75ZM10 10.625C10 10.9705 10.2795 11.25 10.625 11.25H11.875C12.2205 11.25 12.5 10.9705 12.5 10.625C12.5 10.2795 12.2205 10 11.875 10H10.625C10.2795 10 10 10.2795 10 10.625ZM10.625 8.75H11.875C12.2205 8.75 12.5 8.47047 12.5 8.125C12.5 7.77953 12.2205 7.5 11.875 7.5H10.625C10.2795 7.5 10 7.77953 10 8.125C10 8.47047 10.2795 8.75 10.625 8.75ZM13.75 8.125C13.75 8.47047 14.0295 8.75 14.375 8.75H15.625C15.9705 8.75 16.25 8.47047 16.25 8.125C16.25 7.77953 15.9705 7.5 15.625 7.5H14.375C14.0295 7.5 13.75 7.77953 13.75 8.125ZM1.25 5H17.5V3.125C17.5 2.78016 17.2198 2.5 16.875 2.5H15.625V3.125C15.625 3.47047 15.3455 3.75 15 3.75C14.6545 3.75 14.375 3.47047 14.375 3.125V2.5H11.875V3.125C11.875 3.47047 11.5955 3.75 11.25 3.75C10.9045 3.75 10.625 3.47047 10.625 3.125V2.5H8.125V3.125C8.125 3.47047 7.84547 3.75 7.5 3.75C7.15453 3.75 6.875 3.47047 6.875 3.125V2.5H4.375V3.125C4.375 3.47047 4.09547 3.75 3.75 3.75C3.40453 3.75 3.125 3.47047 3.125 3.125V2.5H1.875C1.53016 2.5 1.25 2.78016 1.25 3.125V5ZM11.25 15.625C11.25 13.2129 13.2129 11.25 15.625 11.25C18.0371 11.25 20 13.2129 20 15.625C20 18.0371 18.0371 20 15.625 20C13.2129 20 11.25 18.0371 11.25 15.625ZM15 15.625C15 15.9705 15.2795 16.25 15.625 16.25H18.125C18.4705 16.25 18.75 15.9705 18.75 15.625C18.75 15.2795 18.4705 15 18.125 15H16.25V13.125C16.25 12.7795 15.9705 12.5 15.625 12.5C15.2795 12.5 15 12.7795 15 13.125V15.625Z" fill="#4CA1ED"/>
</svg>
