<svg xmlns="http://www.w3.org/2000/svg" xmlns:xlink="http://www.w3.org/1999/xlink" width="18" height="22" viewBox="0 0 18 22">
    <defs>
        <path id="huxaq4hc2a" d="M0 0L18 0 18 22 0 22z"/>
    </defs>
    <g fill-rule="evenodd">
        <mask id="tv0rvupigb" fill="#fff">
            <use xlink:href="#huxaq4hc2a"/>
        </mask>
        <path fill="#f7a87c" d="M16.753 11.938c-.063 1.008-.116 2.019-.126 3.03-.017 1.731.003 3.464.007 5.196 0 .324-.085.415-.401.434l-6.495.391c-.909-.025-2.08-.066-3.253-.089-1.18-.024-2.36-.028-3.54-.046-.457-.007-.914-.02-1.37-.046-.439-.024-.509-.103-.514-.548-.01-.763-.016-1.525-.018-2.287-.003-.707.004-1.415.003-2.123-.001-2.61.126-5.214.265-7.819.052-.981.026-1.967.03-2.951.002-.306.051-.37.351-.346.728.056 1.455.12 2.182.182.054.005.108.014.161.025.215.046.283.16.219.37-.063.206-.15.407-.19.617-.03.154-.02.323.007.48.047.27.2.391.46.398.268.007.417-.098.496-.358.11-.355.204-.714.324-1.065.119-.35.258-.453.625-.422 2.005.17 4.008.012 6.012-.032.062-.002.123-.004.184-.004.352.001.457.079.576.401.113.304.23.606.354.905.046.11.108.22.183.313.193.241.463.283.73.126.224-.131.28-.319.164-.615-.096-.245-.22-.479-.314-.724-.121-.313-.05-.448.284-.453.763-.01 1.527.006 2.29.025.22.005.342.135.368.39.054.523.101 1.048.119 1.572.057 1.694-.069 3.383-.173 5.073m-5.016-8.03c-1.748.019-3.436.222-5.19.008.87-.955 1.937-1.21 3.114-1.105.812.073 1.538.359 2.076 1.097M5.79 2.662c.283-.407.649-.73 1.071-.986 1.262-.763 2.575-.83 3.899-.192.331.16.593.461.884.702.037.03.056.083.123.187-2.307-1.061-4.362-.783-6.212.888.01-.232.11-.422.235-.6m12.113 7.718c.075-1.361.16-2.721.028-4.084-.057-.585-.084-1.17.054-1.751.044-.185-.037-.335-.206-.422-.096-.05-.202-.084-.308-.104-.88-.17-1.767-.26-2.666-.188-.094.008-.191.006-.285-.006-.352-.044-.54-.284-.688-.572-.503-.97-1.172-1.808-2.09-2.422C10.205-.2 8.569-.21 6.902.463c-.996.403-1.789 1.063-2.261 2.04-.133.275-.181.59-.27.886-.099.337-.26.468-.61.495-.096.007-.193.014-.287.003-.427-.046-.854-.093-1.28-.149-.485-.063-.966-.068-1.436.09-.45.151-.586.398-.536.866.05.475.108.954.094 1.43C.268 7.7.19 9.278.12 10.854c-.068 1.534-.159 3.066-.102 4.603.034.956.006 1.913.006 2.87H.009c0 .648-.002 1.295 0 1.942 0 .264 0 .527.015.79.012.206.099.38.311.459.571.21 1.144.377 1.77.361.913-.023 1.829-.023 2.742.01 2.053.07 4.104.177 6.159.056 1.266-.075 2.532-.151 3.798-.239.689-.048 1.374-.11 2.06.031.118.025.244.019.366.013.186-.008.304-.113.354-.286.029-.103.052-.21.055-.317.02-.816.046-1.631.048-2.447.005-1.461-.038-2.923-.002-4.383.032-1.314.146-2.625.218-3.938" mask="url(#tv0rvupigb)"/>
    </g>
</svg>
