<?xml version="1.0" encoding="utf-8"?>
<!-- Generator: Adobe Illustrator 21.0.2, SVG Export Plug-In . SVG Version: 6.00 Build 0)  -->
<svg version="1.1" id="Layer_1" xmlns="http://www.w3.org/2000/svg" xmlns:xlink="http://www.w3.org/1999/xlink" x="0px" y="0px"
	 viewBox="0 0 320 121" style="enable-background:new 0 0 320 121;" xml:space="preserve">
<style type="text/css">
	.st0{fill:#2A2B2A;}
</style>
<g>
	<path class="st0" d="M100.3,103.8l-0.7-1.9h-3.4l-0.7,1.9h-2.3l4.6-10.4H98l4.6,10.4H100.3z M97.8,97.6l-1,2.5h1.9L97.8,97.6z"/>
	<path class="st0" d="M123.1,104l-5.9-5.6v5.4h-2.3V93.3l0.3-0.1l5.8,5.6v-5.4h2.3V104L123.1,104z"/>
	<path class="st0" d="M136.7,103.8l-0.7-1.9h-3.4l-0.7,1.9h-2.3l4.6-10.4h0.3l4.6,10.4H136.7z M134.3,97.6l-1,2.5h1.9L134.3,97.6z"
		/>
	<path class="st0" d="M145.3,103.8V93.5h2.3v10.3H145.3z"/>
	<path class="st0" d="M155.1,103.8V93.5h2.3v8.2h3.9v2.2H155.1z"/>
	<path class="st0" d="M176.5,104c-1.1,0-2.4-0.5-3.3-1.1l0.6-2.2c0.8,0.6,1.8,1,2.7,1c0.8,0,1.1-0.4,1.1-0.9c0-0.5-0.3-0.9-1.7-1.5
		c-1.7-0.7-2.3-1.8-2.3-3c0-1.5,1.2-3,3.4-3c1.1,0,2.2,0.4,2.7,0.8l-0.6,2.1c-0.6-0.4-1.5-0.8-2.2-0.8c-0.8,0-1.2,0.4-1.2,0.8
		c0,0.7,0.5,0.9,1.7,1.5c1.8,0.8,2.4,1.7,2.4,3.1C180,102.4,178.9,104,176.5,104z"/>
	<path class="st0" d="M192.9,103.8v-4.1h-3.8v4.1h-2.3V93.5h2.3v4h3.8v-4h2.3v10.3H192.9z"/>
	<path class="st0" d="M207.2,104c-3,0-4.9-2.3-4.9-5.3c0-3,2-5.3,5-5.3c3,0,4.9,2.3,4.9,5.3C212.3,101.7,210.2,104,207.2,104z
		 M207.3,95.4c-1.5,0-2.6,1.3-2.6,3.2c0,1.8,1,3.2,2.6,3.2c1.5,0,2.6-1.4,2.6-3.2C209.9,96.8,208.8,95.4,207.3,95.4z"/>
	<path class="st0" d="M222.5,100.7c-0.3,0-0.5,0-0.8,0v3.1h-2.3V93.6c1-0.1,1.9-0.2,2.7-0.2c2.8,0,4.3,1.6,4.3,3.7
		C226.5,99.2,225.1,100.7,222.5,100.7z M222.5,95.6c-0.3,0-0.5,0-0.8,0.1v2.9c0.3,0,0.5,0,0.7,0c1.2,0,1.8-0.6,1.8-1.6
		C224.1,96.3,223.6,95.6,222.5,95.6z"/>
</g>
<g>
	<g>
		<path class="st0" d="M266.1,50.5c-0.5,0.5-0.9,1.1-1.3,1.7c-2.4,3.8-5.7,6.6-9.8,8.7c-1.5,0.3-3.1-0.2-4.6-1.2
			c-0.7-0.5-1.3-1.1-1.8-1.8l2.8-0.3c0.1,0.1,0.1,0.2,0.2,0.2c1,0.4,1.9,0.3,2.6-0.2c0.9-0.6,1.8-1.2,2.5-1.9
			c4.6-4.8,9-9.7,11.8-15.9c0.7-1.4,1.1-2.9,1.4-4.5c0.1-0.5,0-1-0.4-1.4c-0.5-0.5-1-0.3-1.5-0.3c-4.1,0.4-8.3,0.6-12.5-0.3
			c-1.2-0.2-2.3-0.5-3.3-1.1c-0.3-0.2-0.4-0.5-0.7-1c0.7-0.6,7-0.9,10.6-0.9c3.1-0.1,6.3-0.3,9.5-0.4c2.3-4.9,2.5-10.4,4.1-15.1
			c0.8-0.9,1.6-1,2.4-1.3c0.9-0.1,1.8,0.3,2.5,0.9c0.1,0.2,0.3,0.5,0.2,0.7c-0.5,1.9-0.9,3.8-1.6,5.6c-0.9,2.5-1.5,5.1-2.1,7.7
			c-0.1,0.3,0,0.7,0,1.2c2.4,0.9,4.8,0.6,7.2,0.9c2.4,0.3,4.8,0.2,7.3,0.3c2.3,0.1,4.6,0.1,6.9,0.3c2.4,0.1,4.7-0.3,7,0.2
			c0.5,0.9,0,1.2-0.3,1.7c-1.7,0.2-3.3,0.7-5.1,0.5c-1.7-0.2-3.4,0.2-5.3,0c-2-0.3-4.1-0.2-6.1-0.1c-3,0.3-6.1,0.1-9.1,0.1
			c-1.3,0-2.6-0.2-3.8,0.6c-1.3,4.8-2.4,9.7-2.9,14.9c-0.3,3.3-0.9,6.5-1.4,9.8c-0.2,1.8-0.5,3.6-0.6,5.5c-0.1,3-0.1,5.9,0,8.9
			c0.1,2.3-0.2,4.4-0.7,6.4c-1,0.5-1.8,0.5-2.8,0.1c-1.5-1-2-2.6-1.7-4c0.3-1.6,0.2-3.2,0.3-5.1c0.2-3.1,0.1-3.5,0.4-5.9
			c0.2-1.9,0.5-2.9,0.7-5.1c0.2-2.4,0.4-5.2,0.7-7.6c0.1-0.6,0-1.2-0.7-1.8C266.8,50.2,266.3,50.2,266.1,50.5z"/>
		<path class="st0" d="M252,48.2c1.2-1.4,2.8-2.5,3.3-4.2c-0.2-0.6-0.5-0.8-1-0.9c-0.2,0.1-0.7,0.1-0.9,0.4
			c-0.8,1.1-1.5,2.3-2.3,3.5c-0.2,0.4-0.5,0.8-0.1,1.3C251.4,48.6,251.8,48.4,252,48.2z M235.3,42.3c0.9-0.9,1.5-2,1.4-3.8
			c-3.5,0.2-4.9,1.1-7.7,4.8c0.4,0.6,1,0.7,1.7,0.7C232.6,44.2,234.1,43.5,235.3,42.3z M235.9,37c1.3-0.3,2.7-0.5,4,0.5
			c0.5,0.7,0.5,1.3,0.3,1.8c-0.5,1.2-1.2,2.3-2.2,3.2c-2,1.8-3.5,4.2-6.6,4.2c-0.1,0.6-0.2,0.9-0.1,1c0.3,0.6,0.5,1.3,0.9,1.7
			c1.1,1,2.3,2.3,3.4,3.2c1.5,0.6,7.5,0.6,10.9-1.1c1.2-3.4,1.9-7.1,4.1-10.3c1.8-0.6,3.8,0.2,5.8,0.2c0.6,0,1.3,0.2,1.7,0.9
			c-0.8,4.9-3.9,8.2-7.5,11.1c-0.1,1.5-0.3,2.9,0.7,4.1l-2.8,0.3c-0.5-0.7-1-1.4-1.7-2c-1.1,0.3-2.1,0.4-3,0.7
			c-1.4,0.5-3,0.1-4.5,0.1c-2.7,0.1-5.1-1.3-7.1-3.3c-1.6-1.6-3-3.3-4.3-5c-0.9-0.2-1.1,0.2-1.2,0.7c-0.5,1.6-1.2,3.2-1.3,5
			c-0.2,2.9-1,5.7-1.5,8.5c-0.4,2.8-0.8,5.6-1.4,8.3c0,0.1-0.1,0.2-0.2,0.3c-0.9,0.7-1.8,0.5-2.7-0.2c-0.2-0.3-0.4-0.5-0.4-0.7
			c-0.1-3.3,0.2-6.4,0.9-9.6c0.7-3.2,0.6-5.6,1.5-8.3c0.3-0.8,0.6-1.6,0.5-2.4c0-0.3-0.5-2.5-0.7-2.5c-0.6,0-0.9,0.4-1.2,0.7
			c-1.4,1.9-2.8,3.8-4.1,5.7c-1.2,1.9-2.8,3.4-4.7,4.5c-1.1,0.3-2.2,0.4-3.2,0.3l-0.4-2.5c1.3-0.1,2.1-0.5,2.7-1
			c0.8-0.7,1.6-1.4,2.3-2.2c3.6-4.5,7-9.1,9.8-14.1c2.8-5,4.4-10.5,5.7-16.1c0.4-1.7,0.7-3.6,1.9-4.9c1.7-0.5,3,0.2,4.3,1.1
			c0,0.4,0.2,0.7,0.1,0.9c-1.2,2.9-1.7,6-2.4,9c-0.5,2.4-1.1,4.7-1.9,6.9c-0.5,1.2-0.9,2.4-0.6,3.8c1,0.5,1.5-0.2,2.1-0.5
			C232.9,38,234.4,37.4,235.9,37z"/>
		<path class="st0" d="M196.3,56.7c-2.3,1.2-2.8,1.2-6.1,0.4c-1-0.5-1.7-1.3-2.6-2.5c-0.6-0.7-0.1-2.2-1.2-3.6
			c-0.3,0.2-0.5,0.4-0.7,0.6l-1.6-1c0.5-0.7,1.1-1.4,1.6-2.1c0.7-0.9,1.6-1.7,2.2-2.7c0.6-1,0.8-2.2,1.3-3.3
			c1.1-0.4,2.3-0.6,3.7,0.1c-0.5,2.6-1,5.2-1.6,7.7c-0.4,1.5-0.4,3,0.2,4.4c0.8,0.5,1.2,0.3,1.7,0.2c1.3-0.4,2.4-1.1,3.2-2.2
			c1.9-2.8,4.5-5,6.6-7.7c0.5-0.6,1-1.3,1.5-2c0.6-1,1.5-1.8,2.3-2.5c1.6-0.7,3.3-0.6,5-0.3c1.7,0.3,2.8,1.3,3.2,2.9
			c-0.3,0.6-0.8,0.7-1.4,0.5c-1.1-0.3-2.2-0.7-3.3-1c-1.2,0.4-1.9,1.2-2.4,2.2c-0.8,2-1.6,3.9-2.2,6c-0.6,2,0.5,3.7,1.8,5.2
			c0.1,0,0.2,0,0.3,0l0.4,2.5c-0.9-0.2-1.8-0.5-2.8-1c-1.8-1.2-2.4-3.1-3.5-4.4c-0.9-0.3-1.2,0.1-1.4,0.5
			C199.5,55,197.9,55.9,196.3,56.7z"/>
		<path class="st0" d="M164.7,60c-1.2,2.6-3.8,3.6-6.4,4.6c-0.3,0.1-0.8,0.1-1.1,0.1c-0.9-0.2-1.8-0.4-2.6-0.7
			c-0.9-0.3-1.8-0.6-2.3-1.4c0.7-2.7,1.4-4,3.1-5.6c2-1.8,4-3.6,6.5-4.7c1-0.4,1.8-1.1,2.7-1.7c0.2-2.3,0.7-4.5,0.2-6.8
			c-0.1-0.6-0.4-1.2-1.2-1.8c-0.5-0.2-1-0.4-1.6-0.4l-0.2-1.4c0.7,0,1.3,0.1,2,0.2c2.2,0.4,3.5,1.6,4.1,3.7c0.3,1.2,0.4,2.4,0.6,3.5
			c0.6,0.6,1.1,0.4,1.5,0.2c1.1-0.5,2.1-1.1,3.2-1.6c0.7-1.5,1.4-2.9,2.1-4.4c1.8-0.8,5.2-0.6,5.6-0.2c0.3,0.5,0,2.7-1.3,5.2
			c-1.5,2.7-1.7,5.8-1.9,8.9c0,0.2,0.3,0.4,0.5,0.7c0.3-0.1,0.7-0.2,0.9-0.4c1.1-1,2.2-2.1,3.2-3.2c0.6-0.7,1.1-1.3,1.6-2l1.6,1
			c-0.6,0.7-0.8,1.5-1.3,2.2c-0.7,0.9-1.4,1.9-2.1,2.8c-0.7,0.9-1.5,1.8-2.1,2.5c-1.3,0.5-2.5,0.4-3.8,0.1c-3.6-2-3.7-5.5-4.5-8.6
			c-0.4-0.1-0.7-0.2-0.9-0.1c-1.2,0.9-2.7,1.5-3.8,2.9C167,55.7,165.8,57.8,164.7,60z M158.8,56.7c-2.6,1-3.9,2.8-4.4,5.7
			c2.1,1.6,3.6,0.6,5,0.3c2.8-2.6,3.4-3.6,4.2-7.5c-0.4-0.5-0.9-0.5-1.4-0.3C161.1,55.5,160,56.2,158.8,56.7z"/>
		<path class="st0" d="M145.6,42.3c0.2-0.6,0.6-1.3,0.1-2.1c-1.9-0.3-3.8-0.1-5.7,0.1l-0.6-2.4c2.7-0.3,5.2-1.1,7.5-2.5
			c1.4-0.8,2.3-1.9,2.8-3.4c1.1-3.3,2.3-6.6,3.4-9.9c0.5-1.3,0.9-2.7,1.3-4.1c0.4-0.3,0.7-0.5,1.1-0.8c0.4-0.3,0.8-0.5,1.1-0.6
			c1.1-0.1,1.9,0.2,2.9,0.8c-1.1,3.3-1.3,6.7-2.4,10c-1.7,5.1-3.2,10.3-4.8,15.4c-0.1,0.3-0.1,0.7-0.2,1c0.5,0.7,1,0.4,1.3,0.1
			c1.2-1.1,2.5-2.1,4-2.8c1.3-0.6,2.7-0.9,4.2-0.9l0.2,1.4c-1.1,0-2.2,0.5-3.1,1.2c-4.3,3.3-8.2,6.9-9.6,12.5
			c-0.5,2.2-1.1,4.3-1.4,6.5c-0.2,1.2-0.4,2.3-0.7,3.5c-1.8,0.4-3.3,0.2-4.6-1.2c-0.9-1.3-0.9-2.7-0.9-4c0-2.1,0.1-4.3,0.7-6.3
			C143.6,50,144.6,46.1,145.6,42.3z"/>
		<path class="st0" d="M131.4,37.3c0.2,0.2,0.3,0.3,0.4,0.3c2.6,0.5,5.2,0.6,7.6,0.4l0.6,2.4c-0.6,0.1-1.2,0.1-1.8,0.2
			c-2.5,0.1-5,0.1-7.5,0.2c-0.9,0.5-0.8,1.4-1.1,2.1c-0.2,0.8-0.5,1.5-0.6,2.3c-0.4,2.3,0.2,3-0.3,5.3c-0.9,4.6-1.1,9.3-1.4,14
			c-0.1,1.2,0.2,2.4,0.1,3.6c-0.3,2.9-0.8,5.8-1.1,8.4c-1,0.8-1.8,0.2-2.5,0c-1.2-1-1.7-2.1-2.1-3.2c0.2-2.1,0.4-4,0.5-6
			c0.1-1.8,0.3-3.5,0.7-5.2c0.4-1.8,0.7-2.9,0.8-5.8c0-3.5,0.3-2.9,0.1-6.4c-2,1.7-3,4-5.1,5.4c-1.9,1.3-3,3.5-5.3,4.2
			c-1.5,0.1-2.7-0.4-4.1-1c-0.9-0.9-1.6-1.9-2.1-2.9l2.4-0.7c0.2,0.4,0.6,0.7,1.2,1c3.4-1.5,6.5-3.5,8.9-6.4c2.5-3,4.1-4.3,5-8.2
			c-0.6-0.7-1.2-0.8-1.9-0.8c-2.9-0.3-5.9-0.9-8.7-1.9c-0.6-0.2-1.2-0.5-1.4-1.3c2.1-0.7,4.2,0.1,6.4,0.3c2.2,0.2,4.3,0.3,6.5,0.4
			c1.3-1.4,1.7-3.1,2.2-4.7c1.4-4.7,2.8-9.4,4.2-14c0.1-0.4,0.4-0.8,0.5-1.2c1.3-0.4,2.3-0.2,3.2,0.6c0.5,0.6,0.4,1.3,0.2,1.8
			c-1.3,4.3-2.7,8.7-4,13C131.7,34.6,131,35.8,131.4,37.3z"/>
		<path class="st0" d="M83.7,36.1c-1.6,0.3-3.2,0.3-4.7-0.7c-0.3-0.7,0.1-1,0.6-1.1c1.2-0.2,2.5-0.3,3.7,0.1
			c0.5,0.3,0.9,0.7,0.8,1.2C84,35.8,83.9,36.1,83.7,36.1z"/>
		<path class="st0" d="M110,45.5c0.1-0.9-0.1-1.9-0.9-3c-1.6-1.3-3.4-1.3-5-0.2c-0.9,0.6-1.6,1.4-2.4,2c-1.4,1-2.5,2.3-3.9,3.2
			c-0.7-0.6-0.6-1-0.4-1.5c0.4-1.2,0.3-2.5,0-3.8c-0.1-0.2-0.3-0.4-0.4-0.6c-0.6-0.4-1.3-0.4-2.5,0c0,0-0.3,0.5-0.6,0.9
			c-1,1.4-2,2.8-2.9,4.2c-1.6,2.7-3.8,4.8-6.5,6.6c-1.5,1-3,2.2-5,2.6c-0.4-0.4-0.7-0.6-0.8-0.9c-0.4-1.3-0.5-2.6-0.2-3.8
			c0.5-2.2,1-4.5,1.5-6.7c0.2-1.1,0.6-2.2,0.2-3.4c-1.4-0.6-1.4-0.6-3-0.2c-1,3.2-2.9,6-3.6,9.3c-1.3,1.2-2.6,3.2-3.9,4.2
			c-0.8,0.7-1.5,1.7-3,1.8c-0.1,1.1-0.1,0.9-0.3,2c1.4,0.1,2.6-0.3,4.4-1.8c0.7-0.6,1.3-1.2,2-1.9c0.3-0.3,0.6-0.7,1.4-0.5
			c0.8,1.2,1.7,2.6,2.6,3.8c0.4,0.3,0.8,0.5,1.1,0.7c2.1,1.2,4,1,5.7,0c0.6-0.4,1.1-0.8,1.6-1.3c2-2.1,4.3-4.1,6-6.6
			c0.2-0.3,0.6-0.4,0.9-0.6c0.5,0.6,0.4,1.2,0.2,1.7c-0.9,2.6-1.3,5.4-1.7,8.1c-0.2,0.9-0.1,1.8,0.4,3c0.7,0.6,1.2,1.8,2.6,1.7
			c0.2-0.2,0.4-0.3,0.5-0.5c0.4-1.2,0.7-2.4,1-3.6c1.6-6.8,5.2-12.4,11.1-16.4c0.1-0.1,0.5,0,0.7,0.1c0.6,0.4,0.3,0.9,0.3,1.3
			c-0.2,1.3-0.4,2.5-0.7,3.8c-0.5,2.2-0.1,4.2,0.8,6l2.4-0.7c-0.1-0.1-0.1-0.3-0.2-0.4c-0.3-1.1-0.2-2.1,0-3.2
			C109.8,49.3,109.9,47.4,110,45.5z"/>
		<path class="st0" d="M66.8,56.4c-0.2,0-0.4,0-0.6,0c-1.3-0.5-1.6-1.4-1.6-2.4c0.1-2.1,0.2-4.2,0.3-6.2c0-0.7,0.1-1.4-0.8-2.2
			c-1.3-0.2-2.8-0.5-4.2-0.7c-0.5,0.1-0.8,0.2-1.2,0.2c-2.8,0.5-5.1,1.4-6.4,3.9c-0.3,0.5-0.8,0.8-1.2,1.2c-0.9,0.9-1.4,2-1.8,3.2
			c-0.2,1-0.3,2-0.4,3.1c0.7,1.5,1.7,2.8,3.3,3.7c1.3,0.7,2.6,1.2,4.1,0.8c2.5-1,3.3-3.7,5.4-5.2c1.5,0.6,2.2,2,3.8,2.5
			c0.3,0.1,0.6,0.1,0.9,0.1C66.7,57.7,66.7,57.1,66.8,56.4z M60.9,50.5c-1.5,2.5-3,5-5.2,7c-0.6,0.5-1.2,1-2.6,0.8
			c-0.2-3.3,1.3-5.7,3.2-7.8c1.1-1.3,2.4-2.6,4.6-3c0.2,0.4,0.5,0.8,0.5,1.1C61.3,49.2,61.3,49.9,60.9,50.5z"/>
		<path class="st0" d="M30.3,22.5c1.6-0.6,2.9-1,4.1-1.8c4.5-2.8,9.7-2.7,15.2-1c1.8,0.5,3.3,1.4,4.4,2.9c0.4,0.6,0.9,1.1,1.4,1.7
			c2.2,2.6,2.8,5.3,2.1,8.4c-0.9,4.2-3,7.7-5.8,11c-1.2,1.4-2.9,2.2-4.7,2.8c-2.4,0.8-4.8,1.5-7,2.2c-0.6,0.7-1.3,1.4-1.4,2
			c-0.1,1.1-0.2,2.2-0.4,3.3c-0.6,2.4-0.7,5-0.9,7.5c-0.2,2.6-0.1,5.3-0.8,7.8c-0.1,0.2-0.2,1.8-0.1,2c-0.1,2.7-0.2,3.2-0.6,5.4
			c0,1-0.1,1-1.4,2c-0.9-0.2-1.3-0.8-1.7-1.5c-0.8-1.5-0.9-3.2-1.1-4.7c-0.6-5.1-0.1-10,0.2-15.1c0.1-2.2,0.6-4.3,0.9-6.5
			c0-0.1,0-0.2,0-0.3c-0.2-0.7-1-0.7-1.5-1c-0.6-0.3-1-0.7-1.2-1.5c0.7-1,2.2-1.4,3.4-2.4c0.7-1.6,0.9-3.6,1.2-5.5
			c0.3-1.9,0.6-3.9,0.8-5.9c0.2-1.8,0.4-3.7,0.7-5.6c0.2-1.9,0.9-3.8,0.9-5.7c-2.2-0.3-3.1,1.1-4.6,1.5C31,24.4,30.6,23.6,30.3,22.5
			z M45,20.9c-0.8,0-1.5,0-2.3,0c-0.6,0-1.2,0.1-1.6,0.7c-0.5,0.8-0.7,1.9-0.7,2.8c0,1.2,0.1,2.3-0.2,3.4c-0.4,2.4-0.5,4.7-0.7,7.4
			c-0.1,1.8,0.2,3.6-0.1,5.3c-0.1,0.7-0.3,1.2,0,2.5c4.5-1.2,7.5-2.8,10.2-6.4C52,33.4,54,30,53.4,25.8C51,22.1,49.4,21.1,45,20.9z"
			/>
	</g>
</g>
</svg>
